<svg height="600" version="1.1" width="800" xmlns="http://www.w3.org/2000/svg" preserveAspectRatio="xMidYMid meet" viewBox="0 0 600 442" xmlns:xlink="http://www.w3.org/1999/xlink"><desc>Created with Snap</desc><defs/><g id="root" contentwidth="206.95" contentheight="311.25">
          <rect class="background" height="2000%" width="2000%" y="-1000%" x="-1000%" style="" fill="#ffffff"/>
          <g class="content" id="content" transform="matrix(1,0,0,1,236.35,338.925)">
            <g class="icon" transform="matrix(1,0,0,1,0,2)" style="mask: url(#mask);">
            <svg height="206.95000000000002" version="1.1" width="206.95000000000002" xmlns="http://www.w3.org/2000/svg" x="-39.825" y="-275.55"><desc>Created with Snap</desc><defs/><svg xmlns="http://www.w3.org/2000/svg" xmlns:xlink="http://www.w3.org/1999/xlink" preserveAspectRatio="xMidYMid meet" viewBox="0 0 512 512">
<g fill="#2a4983">
<svg class="icon" preserveAspectRatio="xMidYMid meet" version="1.0" viewBox="0 0 512 512">
<g>
<svg height="512" preserveAspectRatio="xMidYMid meet" width="512">
<svg version="1.1" viewBox="0 0 225 113">
<path d="M0 0 C1 -0 1 -0 2.1 -0 C4.3 0 6.6 0 8.8 0 C10.4 0 12 0 13.5 0 C17.7 0 21.8 0.1 25.9 0.1 C30.1 0.1 34.3 0.1 38.5 0.1 C46.7 0.2 55 0.2 63.2 0.2 C61.9 0.6 60.6 0.9 59.2 1.2 C59 3 59 3 58.9 4.7 C58.1 11.9 57.1 19.1 56.2 26.2 C57 26.1 57.7 25.9 58.5 25.7 C61.9 25.1 64.8 25.1 68.2 25.8 C71.4 26.4 71.4 26.4 75.2 25.2 C75.2 17.3 75.2 9.4 75.2 1.2 C77.7 0.7 77.7 0.7 80.2 0.2 C80.7 12.6 80.7 12.6 81.2 25.2 C86.1 26.2 86.1 26.2 90.2 25.2 C91.7 25.7 91.7 25.7 93.2 26.2 C94.9 25.9 96.6 25.6 98.2 25.2 C98.9 25.6 99.6 25.9 100.2 26.2 C99.2 17.8 98.1 9.5 96.2 1.2 C94.9 0.9 93.6 0.6 92.2 0.2 C101.2 -0 110.2 -0.2 119.2 -0.3 C123.3 -0.4 127.5 -0.5 131.7 -0.6 C165.7 -1.6 165.7 -1.6 176.2 8.3 C176.7 8.8 177.2 9.3 177.7 9.8 C179.2 11.3 179.2 11.3 181.4 12.2 C184.1 13.6 185.5 14.7 187.2 17.2 C188.4 23.7 188.2 30.2 188.1 36.8 C188 38.7 188 40.7 188 42.6 C188 47.7 187.9 52.8 187.8 57.9 C187.8 62.1 187.8 66.3 187.7 70.4 C187.7 79 187.6 87.6 187.5 96.2 C187.5 97 187.5 97.8 187.4 98.6 C187.3 104.1 187.3 104.1 186.2 105.2 C183.5 105.3 180.7 105.4 177.9 105.3 C177 105.3 176.1 105.3 175.2 105.3 C172.3 105.4 169.3 105.3 166.3 105.3 C164.2 105.3 162 105.3 159.9 105.3 C154.1 105.3 148.3 105.3 142.5 105.3 C136.5 105.3 130.4 105.3 124.4 105.3 C112.9 105.3 101.4 105.3 90 105.3 C76.9 105.3 63.9 105.3 50.8 105.3 C23.9 105.3 -2.9 105.2 -29.8 105.2 C-30.2 93.9 -30.6 82.5 -30.8 71.1 C-30.9 65.9 -31 60.6 -31.3 55.3 C-32.7 21.1 -32.7 21.1 -27.8 12.9 C-23.3 8.1 -18.1 5.2 -11.9 3 C-3.7 -0 -3.7 -0 0 0 Z M56.2 95.2 C56.2 98.2 56.2 101.2 56.2 104.2 C62.5 104.2 68.8 104.2 75.2 104.2 C75.2 101.9 75.2 99.6 75.2 97.2 C71.7 95.5 70 95.1 66.2 96.2 C64.9 95.9 63.6 95.6 62.2 95.2 C60.9 95.5 59.6 95.9 58.2 96.2 C57.6 95.9 56.9 95.6 56.2 95.2 Z M84.2 95.2 C83.2 95.9 82.3 96.5 81.2 97.2 C81.2 99.5 81.2 101.8 81.2 104.2 C87.5 104.2 93.8 104.2 100.2 104.2 C100.2 101.3 100.2 98.3 100.2 95.2 C98.9 95.6 97.6 95.9 96.2 96.2 C94.9 95.9 93.6 95.6 92.2 95.2 C91.6 95.4 90.9 95.6 90.2 95.7 C88.2 96.2 88.2 96.2 86.2 95.7 C85.5 95.5 84.9 95.4 84.2 95.2 Z " fill="#C08B57" transform="translate(33.766357421875,3.77294921875)"/>
<path d="M0 0 C9 -0.3 18 -0.5 26.9 -0.6 C31.1 -0.6 35.3 -0.7 39.5 -0.8 C73.5 -1.8 73.5 -1.8 84.2 8.2 C85.1 9.1 86 10.1 87 11 C88.1 11.8 89.2 12.5 90.4 13.2 C91.2 13.8 92.1 14.4 93 15 C93 15.7 93 16.3 93 17 C64.9 17 36.9 17 8 17 C6.7 11.7 5.4 6.4 4 1 C2.7 0.7 1.4 0.3 0 0 Z " fill="#B07440" transform="translate(126,4)"/>
<path d="M0 0 C4.1 0.1 8.2 0.2 12.4 0.2 C20.4 0.3 28.4 0.5 36.5 0.8 C35.1 1.1 33.8 1.4 32.5 1.8 C32.4 2.3 32.4 2.9 32.3 3.5 C32.3 4.3 32.2 5 32.1 5.8 C32.1 6.6 32 7.3 32 8.1 C31.5 10.8 31.5 10.8 28.5 17.8 C1.4 17.8 -25.7 17.8 -53.5 17.8 C-40.1 -2.4 -21.9 -0.7 0 0 Z " fill="#B07440" transform="translate(60.5479736328125,3.24468994140625)"/>
<path d="M0 0 C1.2 -0 2.5 -0 3.8 -0 C5.1 -0 6.4 -0 7.8 -0 C9.2 -0 10.6 -0 11.9 -0 C14.9 -0 17.8 -0 20.7 -0 C24.4 -0 28.1 -0.1 31.8 -0.1 C34.7 -0.1 37.5 -0.1 40.4 -0.1 C41.8 -0.1 43.1 -0.1 44.5 -0.1 C57.6 -0.2 57.6 -0.2 63.8 3.3 C63.8 4.3 63.8 5.3 63.8 6.3 C60 9.2 57 9.7 52.3 9.7 C51.1 9.7 49.8 9.7 48.5 9.7 C47.1 9.7 45.7 9.7 44.3 9.7 C42.9 9.7 41.4 9.7 40 9.7 C37 9.7 34 9.7 31 9.7 C27.2 9.6 23.3 9.7 19.5 9.7 C16.5 9.7 13.6 9.7 10.6 9.7 C9.2 9.7 7.8 9.7 6.4 9.7 C-7.2 9.7 -7.2 9.7 -13.2 6.3 C-12.2 3.6 -11.7 2.5 -9 1.2 C-5.9 0.2 -3.3 0 0 0 Z " fill="#D1AD78" transform="translate(86.23974609375,46.725341796875)"/>
<path d="M0 0 C10.6 0 21.1 0 32 0 C32 5.3 32 10.6 32 16 C21.4 16 10.9 16 0 16 C0 10.7 0 5.4 0 0 Z " fill="#3B3B31" transform="translate(49,88)"/>
<path d="M0 0 C10.6 0 21.1 0 32 0 C32 5.3 32 10.6 32 16 C21.4 16 10.9 16 0 16 C0 10.7 0 5.4 0 0 Z " fill="#3B3B31" transform="translate(13,88)"/>
<path d="M0 0 C1.2 -0 2.5 -0 3.7 -0 C5.1 -0 6.4 -0.1 7.8 -0.1 C8.8 -0.1 8.8 -0.1 9.9 -0.1 C13.5 -0.1 17.1 -0.1 20.7 -0.1 C24.4 -0.1 28.1 -0.2 31.9 -0.2 C34.7 -0.2 37.6 -0.2 40.5 -0.2 C41.8 -0.2 43.2 -0.3 44.6 -0.3 C52.4 -0.4 58.4 -0.3 65 4.2 C66 6.9 66 6.9 66 9.2 C64.8 8.7 63.6 8.2 62.4 7.7 C55.9 5.5 49.4 5.7 42.6 5.8 C41.2 5.8 39.8 5.8 38.4 5.8 C35.5 5.8 32.6 5.8 29.7 5.8 C26 5.8 22.4 5.8 18.7 5.8 C15.8 5.8 13 5.8 10.1 5.8 C8.1 5.8 6.1 5.8 4.1 5.8 C2.8 5.8 1.6 5.8 0.3 5.8 C-0.8 5.8 -1.8 5.8 -2.9 5.8 C-6.5 6.2 -8.9 7.5 -12 9.2 C-12.7 9.2 -13.3 9.2 -14 9.2 C-13.7 6.1 -13.4 4.6 -11.1 2.4 C-7.3 0.2 -4.3 0 0 0 Z " fill="#434135" transform="translate(85.996826171875,41.822998046875)"/>
<path d="M0 0 C0.3 0 0.7 0 1 0 C1 3 1 5.9 1 9 C7.3 9 13.5 9 20 9 C20 6.7 20 4.4 20 2 C19 1.5 19 1.5 18 1 C21.4 0.4 21.4 0.4 25 0 C26 1 26 1 27 2 C26.7 4.3 26.3 6.6 26 9 C32.3 9 38.5 9 45 9 C45 6 45 3.1 45 0 C45.3 0 45.7 0 46 0 C46 3 46 5.9 46 9 C74.1 9 102.1 9 131 9 C131 9.3 131 9.7 131 10 C59.7 10 -11.6 10 -85 10 C-85 9.7 -85 9.3 -85 9 C-57 9 -28.9 9 0 9 C0 6 0 3.1 0 0 Z " fill="#DDBA87" transform="translate(89,99)"/>
<path d="M0 0 C6.3 0 12.5 0 19 0 C19 3.3 19 6.6 19 10 C12.7 10 6.5 10 0 10 C0 6.7 0 3.4 0 0 Z " fill="#B58454" transform="translate(55,91)"/>
<path d="M0 0 C6.3 0 12.5 0 19 0 C19 3.3 19 6.6 19 10 C12.7 10 6.5 10 0 10 C0 6.7 0 3.4 0 0 Z " fill="#B58454" transform="translate(20,91)"/>
<path d="M0 0 C1.3 0 2.6 0 4 0 C4.3 8.2 4.7 16.5 5 25 C5.7 25.3 6.3 25.7 7 26 C0.4 27.2 0.4 27.2 -3 25 C-2.3 25 -1.7 25 -1 25 C-1 24.3 -1 23.6 -1 22.8 C-1 19.6 -1 16.3 -1.1 13.1 C-1.1 11.9 -1.1 10.8 -1.1 9.6 C-1.1 8.5 -1.1 7.5 -1.1 6.3 C-1.1 5.3 -1.1 4.3 -1.1 3.3 C-1 1 -1 1 0 0 Z " fill="#F5D982" transform="translate(110,4)"/>
</svg>
</svg>
</g>
</svg>
</g>
</svg></svg></g>
            <g id="icon_name_and_slogan_gap">
            </g>
            <g class="name_and_slogan" id="name_and_slogan_id">
              <g class="name"><g id="nameDefaultGroup"><path d="M11.4 -52.4L27.9 1.9L27.4 3.4L16.2 3.4L0.1 -52.4L11.4 -52.4M44.8 -52.4L61.3 1.4L60.6 3.4L50.3 3.4L38.9 -37.4L29.2 -0.9L23.6 -19.1L32.9 -52.4L44.8 -52.4M77.8 -52.4L62.7 -1.1L57.2 -18.4L66.3 -52.4L77.8 -52.4M102.4 -43.6Q96 -43.6 93.6 -38.5Q91.1 -33.5 91.1 -24.6L91.1 -24.6Q91.1 -15.7 94.1 -10.6Q97.1 -5.5 103.8 -5.5L103.8 -5.5Q105 -5.5 105.7 -5.5L105.7 -5.5L113.1 2.9Q111.2 3.7 108.6 4.1Q106.1 4.6 103.8 4.6L103.8 4.6Q91.7 4.6 86.2 -3.6Q80.6 -11.7 80.6 -24.6L80.6 -24.6Q80.6 -37.4 85.7 -45.5Q90.7 -53.6 102.4 -53.6L102.4 -53.6L102.4 -43.6M105.2 -53.6Q117 -53.6 121.9 -45.6Q126.9 -37.6 126.9 -24.6L126.9 -24.6Q126.9 -18.6 125.6 -13.8Q124.4 -8.9 121.8 -4.9L121.8 -4.9L127.2 0.7L120.1 7.1L103.9 -10.4L110.6 -16.8L114.3 -12.9Q115.4 -15.4 115.9 -18.1Q116.4 -20.8 116.4 -24.6L116.4 -24.6Q116.4 -33.6 114 -38.6Q111.5 -43.6 105.2 -43.6L105.2 -43.6L105.2 -53.6z" style="" fill="#333333" id="namepathdata"/></g></g>
              <g class="slogan"><g id="sloganDefaultGroup"><path d="M36.150000000000006 28.8L36.150000000000006 34.9Q36.150000000000006 35.5 36.050000000000004 36Q35.85000000000001 36.4 35.550000000000004 36.7Q35.25000000000001 36.9 34.650000000000006 37.1Q34.150000000000006 37.2 33.25000000000001 37.2L33.25000000000001 37.2L32.150000000000006 37.3L31.650000000000006 35.8L32.95 35.7Q33.45 35.7 33.75000000000001 35.6Q34.050000000000004 35.5 34.25000000000001 35.4Q34.45 35.2 34.45 35Q34.550000000000004 34.8 34.550000000000004 34.4L34.550000000000004 34.4L34.550000000000004 28.8L27.750000000000007 28.8L28.550000000000004 21.1Q30.150000000000006 21 31.850000000000005 20.9Q33.650000000000006 20.8 35.35000000000001 20.7Q37.050000000000004 20.5 38.650000000000006 20.4Q40.25000000000001 20.2 41.650000000000006 19.9L41.650000000000006 19.9L41.95 21.5Q40.650000000000006 21.7 39.150000000000006 21.8Q37.650000000000006 22 36.050000000000004 22.1Q34.45 22.3 32.85000000000001 22.4Q31.350000000000005 22.5 29.950000000000006 22.6L29.950000000000006 22.6L29.450000000000006 27.3L34.550000000000004 27.3L34.550000000000004 23.2L36.150000000000006 23.3L36.150000000000006 27.3L42.95 27.3L42.95 28.8L36.150000000000006 28.8M31.850000000000005 30.8Q31.450000000000006 31.4 30.950000000000006 32.2Q30.350000000000005 33 29.750000000000007 33.7Q29.050000000000004 34.5 28.350000000000005 35.3Q27.650000000000006 36 27.050000000000004 36.7L27.050000000000004 36.7L25.850000000000005 35.6Q26.450000000000006 35 27.150000000000006 34.3Q27.850000000000005 33.6 28.450000000000006 32.8Q29.150000000000006 32.1 29.650000000000006 31.3Q30.150000000000006 30.6 30.550000000000004 29.9L30.550000000000004 29.9L31.850000000000005 30.8M39.050000000000004 30Q39.550000000000004 30.5 40.150000000000006 31.1Q40.75000000000001 31.8 41.45 32.5Q42.050000000000004 33.2 42.650000000000006 34Q43.35000000000001 34.7 43.85000000000001 35.4L43.85000000000001 35.4L42.650000000000006 36.6Q42.150000000000006 35.9 41.550000000000004 35.1Q40.85000000000001 34.3 40.25000000000001 33.5Q39.550000000000004 32.7 38.95 32.1Q38.35000000000001 31.4 37.85000000000001 30.9L37.85000000000001 30.9L39.050000000000004 30M63.150000000000006 28.5L55.650000000000006 28.5L55.650000000000006 34.5Q55.650000000000006 35.2 55.550000000000004 35.7Q55.45 36.1 55.150000000000006 36.4Q54.85000000000001 36.6 54.35000000000001 36.8Q53.85000000000001 36.9 52.95 37L52.95 37L50.95 37.1L50.45 35.6L52.35000000000001 35.5Q52.85000000000001 35.5 53.25000000000001 35.4Q53.550000000000004 35.3 53.75000000000001 35.1Q53.85000000000001 35 53.95 34.7Q54.050000000000004 34.5 54.050000000000004 34L54.050000000000004 34L54.050000000000004 28.5L46.150000000000006 28.5L46.150000000000006 27L54.050000000000004 27L54.050000000000004 22.2L47.75000000000001 22.2L47.75000000000001 20.7L61.550000000000004 20.7L61.550000000000004 22.2L55.650000000000006 22.2L55.650000000000006 27L63.150000000000006 27L63.150000000000006 28.5M76.65 19.3Q77.15 20.7 77.85000000000001 21.8Q78.45 22.9 79.25 23.9Q80.15 24.8 81.15 25.7Q82.25 26.5 83.55000000000001 27.3L83.55000000000001 27.3L82.65 28.7Q81.25 27.9 80.25 27Q79.15 26.2 78.35000000000001 25.2Q77.45 24.1 76.75 22.9Q76.05000000000001 21.6 75.35000000000001 19.9L75.35000000000001 19.9L76.65 19.3M73.25 20.2Q72.65 21.5 72.05000000000001 22.6Q71.35000000000001 23.7 70.45 24.7Q69.65 25.7 68.65 26.6Q67.55000000000001 27.6 66.25 28.5L66.25 28.5L65.15 27.3Q67.65 25.8 69.25 23.9Q70.85000000000001 21.9 71.85000000000001 19.7L71.85000000000001 19.7L73.25 20.2M68.75 27.1L79.65 27.1Q79.55000000000001 27.5 79.55000000000001 28.1Q79.55000000000001 28.6 79.45 29.3Q79.45 30 79.35000000000001 30.8Q79.35000000000001 31.6 79.25 32.3Q79.25 33 79.15 33.6Q79.15 34.2 79.05000000000001 34.5L79.05000000000001 34.5Q78.95 35.2 78.85000000000001 35.7Q78.75 36.1 78.45 36.3Q78.25 36.6 77.75 36.7Q77.35000000000001 36.8 76.75 36.8L76.75 36.8Q76.35000000000001 36.9 76.15 36.9Q75.85000000000001 36.9 75.65 36.9L75.65 36.9Q75.35000000000001 37 75.15 37L75.15 37L74.55000000000001 35.5L76.15 35.4Q76.55000000000001 35.3 76.85000000000001 35.3Q77.05000000000001 35.2 77.15 35Q77.35000000000001 34.9 77.35000000000001 34.6Q77.45 34.3 77.55000000000001 33.9L77.55000000000001 33.9Q77.55000000000001 33.5 77.65 32.7Q77.75 31.9 77.75 31.1Q77.85000000000001 30.3 77.85000000000001 29.6Q77.95 28.8 77.95 28.6L77.95 28.6L72.65 28.6Q72.55000000000001 28.8 72.55000000000001 29.2Q72.55000000000001 29.5 72.55000000000001 29.8L72.55000000000001 29.8Q72.35000000000001 31.1 72.05000000000001 32.2Q71.85000000000001 33.2 71.15 34.1Q70.55000000000001 35.1 69.55000000000001 35.9Q68.55000000000001 36.8 66.85000000000001 37.7L66.85000000000001 37.7L65.85000000000001 36.5Q67.45 35.7 68.35000000000001 35Q69.25 34.3 69.85000000000001 33.5Q70.35000000000001 32.8 70.55000000000001 31.9Q70.85000000000001 31 70.95 29.8L70.95 29.8Q71.05000000000001 29.5 71.05000000000001 29.1Q71.05000000000001 28.8 71.15 28.6L71.15 28.6L68.75 28.6L68.75 27.1M102.45 22.6L85.65 22.6L85.65 21.3L93.35000000000001 21.3Q93.15 20.8 93.05000000000001 20.4Q92.85000000000001 19.9 92.75 19.6L92.75 19.6L94.25 19.3Q94.35000000000001 19.6 94.55000000000001 20.2Q94.75 20.8 94.95 21.3L94.95 21.3L102.45 21.3L102.45 22.6M88.05000000000001 27.5L88.05000000000001 23.9L100.05000000000001 23.9L100.05000000000001 27.5L88.05000000000001 27.5M89.45 26.4L98.55000000000001 26.4L98.55000000000001 25L89.45 25L89.45 26.4M102.85000000000001 33.5L94.75 33.5L94.75 35Q94.75 35.7 94.75 36.1Q94.65 36.5 94.35000000000001 36.7Q94.15 37 93.75 37.1Q93.35000000000001 37.2 92.75 37.2L92.75 37.2L91.25 37.3L90.75 36L92.15 35.8Q92.55000000000001 35.8 92.75 35.7Q93.05000000000001 35.7 93.15 35.6Q93.25 35.4 93.25 35.2Q93.35000000000001 35 93.35000000000001 34.6L93.35000000000001 34.6L93.35000000000001 33.5L85.15 33.5L85.15 32.2L93.35000000000001 32.2L93.35000000000001 31.5L97.45 30L86.95 30L86.95 28.7L100.55000000000001 28.7L100.55000000000001 30.1L94.75 32.1L94.75 32.2L102.85000000000001 32.2L102.85000000000001 33.5z" style="" fill="#7f7f7f" id="sloganpathdata"/></g></g>
            </g>
            <g class="border">
            </g>
          </g>
          
          <defs id="defs">
            <mask xmlns="http://www.w3.org/2000/svg" id="mask">
                <rect id="showAll" fill="white" x="-39.825" y="-275.55" width="206.95000000000002" height="206.95000000000002"/>
                <rect id="hideNameBg" fill="black" x="0" y="0" width="0" height="0" stroke-width="2" stroke="black"/>
                <rect id="hideSloganBg" fill="black" x="0" y="0" width="0" height="0" stroke-width="2" stroke="black"/>
            <path d="M11.4 -52.4L27.9 1.9L27.4 3.4L16.2 3.4L0.1 -52.4L11.4 -52.4M44.8 -52.4L61.3 1.4L60.6 3.4L50.3 3.4L38.9 -37.4L29.2 -0.9L23.6 -19.1L32.9 -52.4L44.8 -52.4M77.8 -52.4L62.7 -1.1L57.2 -18.4L66.3 -52.4L77.8 -52.4M102.4 -43.6Q96 -43.6 93.6 -38.5Q91.1 -33.5 91.1 -24.6L91.1 -24.6Q91.1 -15.7 94.1 -10.6Q97.1 -5.5 103.8 -5.5L103.8 -5.5Q105 -5.5 105.7 -5.5L105.7 -5.5L113.1 2.9Q111.2 3.7 108.6 4.1Q106.1 4.6 103.8 4.6L103.8 4.6Q91.7 4.6 86.2 -3.6Q80.6 -11.7 80.6 -24.6L80.6 -24.6Q80.6 -37.4 85.7 -45.5Q90.7 -53.6 102.4 -53.6L102.4 -53.6L102.4 -43.6M105.2 -53.6Q117 -53.6 121.9 -45.6Q126.9 -37.6 126.9 -24.6L126.9 -24.6Q126.9 -18.6 125.6 -13.8Q124.4 -8.9 121.8 -4.9L121.8 -4.9L127.2 0.7L120.1 7.1L103.9 -10.4L110.6 -16.8L114.3 -12.9Q115.4 -15.4 115.9 -18.1Q116.4 -20.8 116.4 -24.6L116.4 -24.6Q116.4 -33.6 114 -38.6Q111.5 -43.6 105.2 -43.6L105.2 -43.6L105.2 -53.6z" style="stroke-width: 0;" fill="#000000" id="masknamepathdata" stroke="#000000" paint-order="stroke" transform="matrix(1,0,0,1,0,-2)"/><path d="M36.150000000000006 28.8L36.150000000000006 34.9Q36.150000000000006 35.5 36.050000000000004 36Q35.85000000000001 36.4 35.550000000000004 36.7Q35.25000000000001 36.9 34.650000000000006 37.1Q34.150000000000006 37.2 33.25000000000001 37.2L33.25000000000001 37.2L32.150000000000006 37.3L31.650000000000006 35.8L32.95 35.7Q33.45 35.7 33.75000000000001 35.6Q34.050000000000004 35.5 34.25000000000001 35.4Q34.45 35.2 34.45 35Q34.550000000000004 34.8 34.550000000000004 34.4L34.550000000000004 34.4L34.550000000000004 28.8L27.750000000000007 28.8L28.550000000000004 21.1Q30.150000000000006 21 31.850000000000005 20.9Q33.650000000000006 20.8 35.35000000000001 20.7Q37.050000000000004 20.5 38.650000000000006 20.4Q40.25000000000001 20.2 41.650000000000006 19.9L41.650000000000006 19.9L41.95 21.5Q40.650000000000006 21.7 39.150000000000006 21.8Q37.650000000000006 22 36.050000000000004 22.1Q34.45 22.3 32.85000000000001 22.4Q31.350000000000005 22.5 29.950000000000006 22.6L29.950000000000006 22.6L29.450000000000006 27.3L34.550000000000004 27.3L34.550000000000004 23.2L36.150000000000006 23.3L36.150000000000006 27.3L42.95 27.3L42.95 28.8L36.150000000000006 28.8M31.850000000000005 30.8Q31.450000000000006 31.4 30.950000000000006 32.2Q30.350000000000005 33 29.750000000000007 33.7Q29.050000000000004 34.5 28.350000000000005 35.3Q27.650000000000006 36 27.050000000000004 36.7L27.050000000000004 36.7L25.850000000000005 35.6Q26.450000000000006 35 27.150000000000006 34.3Q27.850000000000005 33.6 28.450000000000006 32.8Q29.150000000000006 32.1 29.650000000000006 31.3Q30.150000000000006 30.6 30.550000000000004 29.9L30.550000000000004 29.9L31.850000000000005 30.8M39.050000000000004 30Q39.550000000000004 30.5 40.150000000000006 31.1Q40.75000000000001 31.8 41.45 32.5Q42.050000000000004 33.2 42.650000000000006 34Q43.35000000000001 34.7 43.85000000000001 35.4L43.85000000000001 35.4L42.650000000000006 36.6Q42.150000000000006 35.9 41.550000000000004 35.1Q40.85000000000001 34.3 40.25000000000001 33.5Q39.550000000000004 32.7 38.95 32.1Q38.35000000000001 31.4 37.85000000000001 30.9L37.85000000000001 30.9L39.050000000000004 30M63.150000000000006 28.5L55.650000000000006 28.5L55.650000000000006 34.5Q55.650000000000006 35.2 55.550000000000004 35.7Q55.45 36.1 55.150000000000006 36.4Q54.85000000000001 36.6 54.35000000000001 36.8Q53.85000000000001 36.9 52.95 37L52.95 37L50.95 37.1L50.45 35.6L52.35000000000001 35.5Q52.85000000000001 35.5 53.25000000000001 35.4Q53.550000000000004 35.3 53.75000000000001 35.1Q53.85000000000001 35 53.95 34.7Q54.050000000000004 34.5 54.050000000000004 34L54.050000000000004 34L54.050000000000004 28.5L46.150000000000006 28.5L46.150000000000006 27L54.050000000000004 27L54.050000000000004 22.2L47.75000000000001 22.2L47.75000000000001 20.7L61.550000000000004 20.7L61.550000000000004 22.2L55.650000000000006 22.2L55.650000000000006 27L63.150000000000006 27L63.150000000000006 28.5M76.65 19.3Q77.15 20.7 77.85000000000001 21.8Q78.45 22.9 79.25 23.9Q80.15 24.8 81.15 25.7Q82.25 26.5 83.55000000000001 27.3L83.55000000000001 27.3L82.65 28.7Q81.25 27.9 80.25 27Q79.15 26.2 78.35000000000001 25.2Q77.45 24.1 76.75 22.9Q76.05000000000001 21.6 75.35000000000001 19.9L75.35000000000001 19.9L76.65 19.3M73.25 20.2Q72.65 21.5 72.05000000000001 22.6Q71.35000000000001 23.7 70.45 24.7Q69.65 25.7 68.65 26.6Q67.55000000000001 27.6 66.25 28.5L66.25 28.5L65.15 27.3Q67.65 25.8 69.25 23.9Q70.85000000000001 21.9 71.85000000000001 19.7L71.85000000000001 19.7L73.25 20.2M68.75 27.1L79.65 27.1Q79.55000000000001 27.5 79.55000000000001 28.1Q79.55000000000001 28.6 79.45 29.3Q79.45 30 79.35000000000001 30.8Q79.35000000000001 31.6 79.25 32.3Q79.25 33 79.15 33.6Q79.15 34.2 79.05000000000001 34.5L79.05000000000001 34.5Q78.95 35.2 78.85000000000001 35.7Q78.75 36.1 78.45 36.3Q78.25 36.6 77.75 36.7Q77.35000000000001 36.8 76.75 36.8L76.75 36.8Q76.35000000000001 36.9 76.15 36.9Q75.85000000000001 36.9 75.65 36.9L75.65 36.9Q75.35000000000001 37 75.15 37L75.15 37L74.55000000000001 35.5L76.15 35.4Q76.55000000000001 35.3 76.85000000000001 35.3Q77.05000000000001 35.2 77.15 35Q77.35000000000001 34.9 77.35000000000001 34.6Q77.45 34.3 77.55000000000001 33.9L77.55000000000001 33.9Q77.55000000000001 33.5 77.65 32.7Q77.75 31.9 77.75 31.1Q77.85000000000001 30.3 77.85000000000001 29.6Q77.95 28.8 77.95 28.6L77.95 28.6L72.65 28.6Q72.55000000000001 28.8 72.55000000000001 29.2Q72.55000000000001 29.5 72.55000000000001 29.8L72.55000000000001 29.8Q72.35000000000001 31.1 72.05000000000001 32.2Q71.85000000000001 33.2 71.15 34.1Q70.55000000000001 35.1 69.55000000000001 35.9Q68.55000000000001 36.8 66.85000000000001 37.7L66.85000000000001 37.7L65.85000000000001 36.5Q67.45 35.7 68.35000000000001 35Q69.25 34.3 69.85000000000001 33.5Q70.35000000000001 32.8 70.55000000000001 31.9Q70.85000000000001 31 70.95 29.8L70.95 29.8Q71.05000000000001 29.5 71.05000000000001 29.1Q71.05000000000001 28.8 71.15 28.6L71.15 28.6L68.75 28.6L68.75 27.1M102.45 22.6L85.65 22.6L85.65 21.3L93.35000000000001 21.3Q93.15 20.8 93.05000000000001 20.4Q92.85000000000001 19.9 92.75 19.6L92.75 19.6L94.25 19.3Q94.35000000000001 19.6 94.55000000000001 20.2Q94.75 20.8 94.95 21.3L94.95 21.3L102.45 21.3L102.45 22.6M88.05000000000001 27.5L88.05000000000001 23.9L100.05000000000001 23.9L100.05000000000001 27.5L88.05000000000001 27.5M89.45 26.4L98.55000000000001 26.4L98.55000000000001 25L89.45 25L89.45 26.4M102.85000000000001 33.5L94.75 33.5L94.75 35Q94.75 35.7 94.75 36.1Q94.65 36.5 94.35000000000001 36.7Q94.15 37 93.75 37.1Q93.35000000000001 37.2 92.75 37.2L92.75 37.2L91.25 37.3L90.75 36L92.15 35.8Q92.55000000000001 35.8 92.75 35.7Q93.05000000000001 35.7 93.15 35.6Q93.25 35.4 93.25 35.2Q93.35000000000001 35 93.35000000000001 34.6L93.35000000000001 34.6L93.35000000000001 33.5L85.15 33.5L85.15 32.2L93.35000000000001 32.2L93.35000000000001 31.5L97.45 30L86.95 30L86.95 28.7L100.55000000000001 28.7L100.55000000000001 30.1L94.75 32.1L94.75 32.2L102.85000000000001 32.2L102.85000000000001 33.5z" style="stroke-width: 0;" fill="#000000" id="masksloganpathdata" stroke="#000000" paint-order="stroke" transform="matrix(1,0,0,1,0,-2)"/></mask>
          </defs>
          
        </g>
        </svg>